<svg width="18" height="17" viewBox="0 0 18 17" fill="none" xmlns="http://www.w3.org/2000/svg">
<path d="M11.0878 4.99917L11.0878 4.99918L11.0905 5.00547C11.2887 5.46521 11.714 5.78225 12.2138 5.82779C12.2141 5.82782 12.2145 5.82785 12.2148 5.82788L17.1693 6.29357C17.1694 6.29358 17.1695 6.29359 17.1696 6.2936C17.4874 6.32425 17.6003 6.71223 17.3939 6.90645L13.6638 10.1632L13.6629 10.1639C13.283 10.4972 13.1235 10.9951 13.2353 11.4843L13.2353 11.4843L13.2368 11.4905L14.3436 16.0604C14.3437 16.0611 14.3439 16.0617 14.344 16.0623C14.4139 16.3698 14.0914 16.6066 13.8185 16.4474L9.68547 14.0331L9.68548 14.0331L9.68268 14.0315C9.25842 13.7874 8.74173 13.7874 8.31746 14.0315L8.31746 14.0315L8.31467 14.0331L4.18164 16.4474C3.91289 16.6042 3.58677 16.3609 3.65569 16.0641C3.65581 16.0636 3.65593 16.0631 3.65606 16.0625L4.77719 11.4919L4.77725 11.492L4.77901 11.4843C4.89085 10.9951 4.73137 10.4972 4.35141 10.1639L4.35056 10.1632L0.617449 6.90381C0.388932 6.69772 0.516132 6.32258 0.816314 6.2936C0.816432 6.29359 0.816551 6.29358 0.816669 6.29357L5.77115 5.82788C5.77148 5.82785 5.77182 5.82782 5.77215 5.82779C6.25566 5.78373 6.71172 5.47832 6.90073 4.99286L8.65992 0.719808L8.65993 0.719814L8.66142 0.716115C8.77738 0.427962 9.19436 0.427962 9.31031 0.716115L9.31029 0.716126L9.31236 0.721118L11.0878 4.99917Z" fill="#FC9B09" stroke="#FC9B09"/>
</svg>
