<svg xmlns="http://www.w3.org/2000/svg" xmlns:xlink="http://www.w3.org/1999/xlink"><defs><clipPath id="clip0"><path fill="#fff" d="M0 0h129v23H0z"/></clipPath></defs><symbol id="logo" viewBox="0 0 129 23"><g clip-path="url(#clip0)"><path d="M.496.152V23h3.04V12.536h12.032V23h3.04V.152h-3.04v9.824H3.536V.152H.496zm23.094 0V23h15.872v-2.56H26.63v-7.904h11.872v-2.56H26.63V2.712h12.736V.152H23.59zm19.562 0V23h15.136v-2.56H46.192V.152h-3.04zm23.66 13.504L75.546.152H72.09l-6.688 10.88L58.555.152H54.94l8.832 13.504V23h3.04v-9.344zM78.121.152V23h3.04V12.536h10.495v-2.56H81.161V2.712H93.13V.152H78.121zm18.374 0V23h15.136v-2.56H99.536V.152h-3.04zm23.659 13.504L128.891.152h-3.456l-6.688 10.88-6.848-10.88h-3.616l8.832 13.504V23h3.04v-9.344z"/></g></symbol><symbol id="star" viewBox="0 0 18 17"><path d="M11.088 5h0l.003.005c.198.46.623.777 1.123.823 0 0 0 0 0 0l4.955.466s0 0 0 0c.318.03.431.418.225.612l-3.73 3.257h-.001c-.38.334-.54.832-.428 1.321h0l.002.007 1.107 4.57v.001a.353.353 0 01-.525.385l-4.134-2.414h0l-.002-.002a1.364 1.364 0 00-1.366 0h0l-.002.002-4.133 2.414a.356.356 0 01-.526-.384l1.121-4.571h0l.002-.008a1.341 1.341 0 00-.428-1.32h0L.617 6.903a.35.35 0 01.2-.61s0 0 0 0l4.954-.466h.001a1.34 1.34 0 001.129-.835L8.66.72h0V.716a.352.352 0 01.65 0h0l.001.005L11.088 5z" fill="#FC9B09" stroke="#FC9B09"/></symbol></svg>