<svg xmlns="http://www.w3.org/2000/svg" xmlns:xlink="http://www.w3.org/1999/xlink"><defs><clipPath id="clip0"><path fill="#fff" d="M0 0h129v23H0z"/></clipPath></defs><symbol id="calendar" viewBox="0 0 18 18"><path clip-rule="evenodd" d="M16.5 1.685h-2.44V.56a.56.56 0 00-1.12 0v1.125H9.56V.56a.56.56 0 00-1.12 0v1.125H5.06V.56a.56.56 0 00-1.12 0v1.125H1.5a1.5 1.5 0 00-1.5 1.5V16.5A1.5 1.5 0 001.5 18h15a1.5 1.5 0 001.5-1.5V3.185a1.5 1.5 0 00-1.5-1.5zm.37 14.815a.37.37 0 01-.37.375h-15a.378.378 0 01-.38-.375V3.185a.378.378 0 01.38-.375h2.44v1.125a.56.56 0 001.12 0V2.81h3.38v1.125a.56.56 0 001.12 0V2.81h3.38v1.125a.56.56 0 001.12 0V2.81h2.44a.37.37 0 01.37.375V16.5zM3.94 6.749h2.25v1.687H3.94V6.749zm0 2.812h2.25v1.688H3.94V9.561zm0 2.813h2.25v1.688H3.94v-1.688zm3.93 0h2.25v1.688H7.87v-1.688zm0-2.813h2.25v1.688H7.87V9.561zm0-2.812h2.25v1.687H7.87V6.749zm3.94 5.625h2.25v1.688h-2.25v-1.688zm0-2.813h2.25v1.688h-2.25V9.561zm0-2.812h2.25v1.687h-2.25V6.749z"/></symbol><symbol id="close" viewBox="0 0 21 21"><path clip-rule="evenodd" d="M19.76.253a.806.806 0 00-1.14 0L.24 18.652a.801.801 0 000 1.143.782.782 0 00.57.237.816.816 0 00.57-.237L19.76 1.397a.8.8 0 000-1.144zm0 18.399L1.38.252A.808.808 0 10.24 1.398l18.38 18.398a.808.808 0 001.33-.255.807.807 0 00-.19-.888z"/></symbol><symbol id="heart" viewBox="0 0 31 27"><path d="M3.53 16.92l-.002-.001C1.898 14.795.747 12.282.53 9.674.15 4.933 3.27.5 8.23.5c2.939 0 5.5 1.585 6.862 3.962l.44.766.43-.771c1.31-2.345 3.891-3.932 6.834-3.932 4.98 0 8.055 4.429 7.672 9.173-.215 2.605-1.388 5.094-2.998 7.223-1.904 2.493-4.305 4.466-6.886 6.288l-.006.003-.026.019-.1.069-.368.255-1.212.841-2.783 1.933a1.017 1.017 0 01-1.133-.003 898.191 898.191 0 00-4.013-2.772l-.371-.255-.1-.07-.027-.017-.007-.005c-2.583-1.823-5.031-3.82-6.909-6.286z" fill="#FC9B09" stroke="#FC9B09"/></symbol><symbol id="logo" viewBox="0 0 129 23"><g clip-path="url(#clip0)"><path d="M.496.152V23h3.04V12.536h12.032V23h3.04V.152h-3.04v9.824H3.536V.152H.496zm23.094 0V23h15.872v-2.56H26.63v-7.904h11.872v-2.56H26.63V2.712h12.736V.152H23.59zm19.562 0V23h15.136v-2.56H46.192V.152h-3.04zm23.66 13.504L75.546.152H72.09l-6.688 10.88L58.555.152H54.94l8.832 13.504V23h3.04v-9.344zM78.121.152V23h3.04V12.536h10.495v-2.56H81.161V2.712H93.13V.152H78.121zm18.374 0V23h15.136v-2.56H99.536V.152h-3.04zm23.659 13.504L128.891.152h-3.456l-6.688 10.88-6.848-10.88h-3.616l8.832 13.504V23h3.04v-9.344z"/></g></symbol><symbol id="star" viewBox="0 0 18 17"><path d="M11.088 5h0l.003.005c.198.46.623.777 1.123.823 0 0 0 0 0 0l4.955.466s0 0 0 0c.318.03.431.418.225.612l-3.73 3.257h-.001c-.38.334-.54.832-.428 1.321h0l.002.007 1.107 4.57v.001a.353.353 0 01-.525.385l-4.134-2.414h0l-.002-.002a1.364 1.364 0 00-1.366 0h0l-.002.002-4.133 2.414a.356.356 0 01-.526-.384l1.121-4.571h0l.002-.008a1.341 1.341 0 00-.428-1.32h0L.617 6.903a.35.35 0 01.2-.61s0 0 0 0l4.954-.466h.001a1.34 1.34 0 001.129-.835L8.66.72h0V.716a.352.352 0 01.65 0h0l.001.005L11.088 5z" fill="#FC9B09" stroke="#FC9B09"/></symbol></svg>